<svg xmlns="http://www.w3.org/2000/svg" viewBox="0 0 1600 1200" preserveAspectRatio="xMidYMid slice">
  <defs>
    <linearGradient id="sky" x1="0" y1="0" x2="0" y2="1"><stop offset="0" stop-color="#e8e2fa"/><stop offset="0.45" stop-color="#f6e4f0"/><stop offset="0.7" stop-color="#fde7da"/><stop offset="0.86" stop-color="#fff2d4"/></linearGradient>
    <radialGradient id="light" cx="0.5" cy="0.82" r="0.45"><stop offset="0" stop-color="#fffbea" stop-opacity="1"/><stop offset="0.35" stop-color="#ffefc0" stop-opacity="0.65"/><stop offset="1" stop-color="#ffe7a8" stop-opacity="0"/></radialGradient>
    <linearGradient id="road" x1="0" y1="0" x2="0" y2="1"><stop offset="0" stop-color="#fff6d8"/><stop offset="1" stop-color="#ffe2a0"/></linearGradient>
  </defs>
  <rect width="1600" height="1200" fill="url(#sky)"/>
  <defs><radialGradient id="ray2" gradientUnits="userSpaceOnUse" cx="800" cy="980" r="807.5"><stop offset="0" stop-color="#ffffff" stop-opacity="1"/><stop offset="1" stop-color="#ffffff" stop-opacity="0"/></radialGradient></defs><g fill="url(#ray2)" opacity="0.55"><path d="M800 980 L135.6 963.4 L138.8 912.4 Z"/><path d="M800 980 L-26.8 798.3 L-11.9 740.3 Z"/><path d="M800 980 L177 759.1 L196.7 709.9 Z"/><path d="M800 980 L95.3 575 L125.2 527 Z"/><path d="M800 980 L234.8 545.4 L271.9 501.1 Z"/><path d="M800 980 L307.5 428.3 L345.5 396.7 Z"/><path d="M800 980 L298.2 226.5 L359.3 189.2 Z"/><path d="M800 980 L513.9 362.5 L562.8 342.1 Z"/><path d="M800 980 L641.6 366.6 L673.7 359.2 Z"/><path d="M800 980 L734.6 190.2 L770.8 188 Z"/><path d="M800 980 L852.3 86.6 L887.6 89.4 Z"/><path d="M800 980 L941.6 355.6 L969.9 362.7 Z"/><path d="M800 980 L1099.9 199.1 L1139.2 215.3 Z"/><path d="M800 980 L1255.3 162.5 L1305.5 192.5 Z"/><path d="M800 980 L1301.6 370.2 L1327.8 392.7 Z"/><path d="M800 980 L1448.5 380.1 L1484.3 421.3 Z"/><path d="M800 980 L1465.5 545.3 L1492.5 589.7 Z"/><path d="M800 980 L1419.8 707.1 L1435.1 744.6 Z"/><path d="M800 980 L1605.6 777.3 L1617 829.8 Z"/><path d="M800 980 L1738.5 876.7 L1743.4 940.2 Z"/></g>
  <rect width="1600" height="1200" fill="url(#light)"/>
  <g fill="#ffffff" opacity="0.85" transform="translate(260 210) scale(1.3)"><ellipse cx="0" cy="0" rx="70" ry="26"/><circle cx="-30" cy="-14" r="28"/><circle cx="12" cy="-26" r="36"/><circle cx="46" cy="-8" r="24"/></g><g fill="#ffffff" opacity="0.85" transform="translate(1240 160) scale(1.1)"><ellipse cx="0" cy="0" rx="70" ry="26"/><circle cx="-30" cy="-14" r="28"/><circle cx="12" cy="-26" r="36"/><circle cx="46" cy="-8" r="24"/></g><g fill="#ffffff" opacity="0.7" transform="translate(980 330) scale(0.8)"><ellipse cx="0" cy="0" rx="70" ry="26"/><circle cx="-30" cy="-14" r="28"/><circle cx="12" cy="-26" r="36"/><circle cx="46" cy="-8" r="24"/></g><g fill="#ffffff" opacity="0.6" transform="translate(520 120) scale(0.7)"><ellipse cx="0" cy="0" rx="70" ry="26"/><circle cx="-30" cy="-14" r="28"/><circle cx="12" cy="-26" r="36"/><circle cx="46" cy="-8" r="24"/></g>
  <g fill="none" stroke="#a99bd0" stroke-width="4" stroke-linecap="round" opacity="0.6"><path d="M1080 250 q14 -12 28 0 q14 -12 28 0"/><path d="M1160 210 q11 -9 22 0 q11 -9 22 0"/></g>
  <path d="M0 930 C 220 880, 440 900, 640 975 C 700 992, 900 992, 960 975 C 1160 900, 1380 880, 1600 925 L1600 1200 L0 1200 Z" fill="#d7eedf"/>
  <g fill="#b6a6dc" opacity="0.9"><rect x="1376" y="836" width="9" height="52" rx="2"/><rect x="1362" y="851" width="37" height="8" rx="2"/></g>
  <path d="M0 1020 C 260 985, 500 1000, 700 1012 C 760 1016, 840 1016, 900 1012 C 1100 1000, 1340 985, 1600 1015 L1600 1200 L0 1200 Z" fill="#c3e6cf"/>
  <path d="M790 985 C 780 1030, 700 1080, 640 1120 C 600 1150, 560 1180, 520 1200 L1080 1200 C 1020 1180, 960 1150, 920 1120 C 860 1080, 818 1030, 810 985 Z" fill="url(#road)"/>
  <ellipse cx="800" cy="982" rx="70" ry="15" fill="#fffef7"/>
  <g transform="translate(250 1060) scale(1.3)"><ellipse cx="0" cy="6" rx="20" ry="4" fill="#7fae8c" opacity="0.35"/><g fill="#6b5f6f"><rect x="-10" y="-2" width="4" height="9" rx="2"/><rect x="6" y="-2" width="4" height="9" rx="2"/></g><ellipse cx="0" cy="-8" rx="16" ry="11" fill="#ffffff"/><circle cx="-8" cy="-14" r="7" fill="#ffffff"/><circle cx="6" cy="-16" r="8" fill="#ffffff"/><ellipse cx="15" cy="-12" rx="6" ry="5" fill="#6b5f6f"/></g><g transform="translate(380 1090) scale(1)"><ellipse cx="0" cy="6" rx="20" ry="4" fill="#7fae8c" opacity="0.35"/><g fill="#6b5f6f"><rect x="-10" y="-2" width="4" height="9" rx="2"/><rect x="6" y="-2" width="4" height="9" rx="2"/></g><ellipse cx="0" cy="-8" rx="16" ry="11" fill="#ffffff"/><circle cx="-8" cy="-14" r="7" fill="#ffffff"/><circle cx="6" cy="-16" r="8" fill="#ffffff"/><ellipse cx="15" cy="-12" rx="6" ry="5" fill="#6b5f6f"/></g><g transform="translate(1300 1070) scale(1.2)"><ellipse cx="0" cy="6" rx="20" ry="4" fill="#7fae8c" opacity="0.35"/><g fill="#6b5f6f"><rect x="-10" y="-2" width="4" height="9" rx="2"/><rect x="6" y="-2" width="4" height="9" rx="2"/></g><ellipse cx="0" cy="-8" rx="16" ry="11" fill="#ffffff"/><circle cx="-8" cy="-14" r="7" fill="#ffffff"/><circle cx="6" cy="-16" r="8" fill="#ffffff"/><ellipse cx="15" cy="-12" rx="6" ry="5" fill="#6b5f6f"/></g><g transform="translate(1420 1100) scale(0.9)"><ellipse cx="0" cy="6" rx="20" ry="4" fill="#7fae8c" opacity="0.35"/><g fill="#6b5f6f"><rect x="-10" y="-2" width="4" height="9" rx="2"/><rect x="6" y="-2" width="4" height="9" rx="2"/></g><ellipse cx="0" cy="-8" rx="16" ry="11" fill="#ffffff"/><circle cx="-8" cy="-14" r="7" fill="#ffffff"/><circle cx="6" cy="-16" r="8" fill="#ffffff"/><ellipse cx="15" cy="-12" rx="6" ry="5" fill="#6b5f6f"/></g></svg>
