<svg xmlns="http://www.w3.org/2000/svg" viewBox="0 0 1600 1200" preserveAspectRatio="xMidYMid slice">
  <defs>
    <linearGradient id="sky" x1="0" y1="0" x2="0" y2="1"><stop offset="0" stop-color="#151a46"/><stop offset="0.38" stop-color="#3f3576"/><stop offset="0.66" stop-color="#a65a7c"/><stop offset="0.84" stop-color="#ee9a6c"/><stop offset="1" stop-color="#f9cf8a"/></linearGradient>
    <radialGradient id="sun" cx="0.5" cy="0.86" r="0.5"><stop offset="0" stop-color="#ffe7a8" stop-opacity="0.75"/><stop offset="0.45" stop-color="#f7b277" stop-opacity="0.25"/><stop offset="1" stop-color="#f7b277" stop-opacity="0"/></radialGradient>
  </defs>
  <rect width="1600" height="1200" fill="url(#sky)"/>
  <g fill="#fdf6dc"><circle cx="1541.4" cy="26.4" r="1.2" opacity="0.5"/><circle cx="473.4" cy="107.3" r="1.7" opacity="0.4"/><circle cx="172.7" cy="73.2" r="1.2" opacity="0.6"/><circle cx="1104.4" cy="219.2" r="1.3" opacity="0.5"/><circle cx="1508.1" cy="23.3" r="1.4" opacity="0.3"/><circle cx="159.9" cy="295.4" r="1.7" opacity="0.5"/><circle cx="159.3" cy="269.1" r="2.4" opacity="0.6"/><circle cx="1409.1" cy="231.5" r="1.1" opacity="0.5"/><circle cx="1554.5" cy="78.1" r="1" opacity="0.4"/><circle cx="1531.9" cy="108.3" r="2.3" opacity="0.5"/><circle cx="803.5" cy="305.1" r="1.2" opacity="0.3"/><circle cx="869.4" cy="247.6" r="2.5" opacity="0.7"/><circle cx="1321.8" cy="32.6" r="0.9" opacity="0.7"/><circle cx="605.7" cy="208.5" r="1.8" opacity="0.7"/><circle cx="1242.1" cy="409.7" r="1.9" opacity="0.4"/><circle cx="1298.7" cy="120.7" r="1.6" opacity="0.6"/><circle cx="1402.7" cy="129.1" r="1.9" opacity="0.6"/><circle cx="1068.1" cy="296" r="2.4" opacity="0.6"/><circle cx="162.3" cy="244.4" r="1.7" opacity="0.5"/><circle cx="765.9" cy="366.8" r="2.6" opacity="0.4"/><circle cx="1543" cy="274.9" r="2.2" opacity="0.4"/><circle cx="74.1" cy="260.3" r="1.2" opacity="0.3"/><circle cx="661.7" cy="35.7" r="2" opacity="0.7"/><circle cx="992.2" cy="43" r="1.4" opacity="0.4"/><circle cx="324.1" cy="3.3" r="1.9" opacity="0.6"/><circle cx="1163" cy="107.6" r="1.4" opacity="0.5"/><circle cx="907.3" cy="71.2" r="1.3" opacity="0.5"/><circle cx="551.6" cy="234" r="0.9" opacity="0.6"/><circle cx="1118.9" cy="141.8" r="1.6" opacity="0.3"/><circle cx="916.6" cy="14.3" r="1" opacity="0.3"/><circle cx="293.9" cy="77.2" r="1.9" opacity="0.4"/><circle cx="362.9" cy="176.8" r="2.5" opacity="0.5"/><circle cx="875.5" cy="249.9" r="2.4" opacity="0.6"/><circle cx="916.4" cy="258.7" r="0.9" opacity="0.5"/><circle cx="980.3" cy="220.6" r="1" opacity="0.5"/><circle cx="1483.5" cy="416.8" r="2.5" opacity="0.4"/><circle cx="623.2" cy="248.8" r="1" opacity="0.4"/><circle cx="818.8" cy="262.1" r="2.4" opacity="0.7"/><circle cx="1551.7" cy="391.9" r="2.5" opacity="0.3"/><circle cx="56.8" cy="278.2" r="1.6" opacity="0.3"/><circle cx="861.3" cy="247.7" r="1.2" opacity="0.6"/><circle cx="596.7" cy="78.4" r="2.5" opacity="0.5"/><circle cx="86" cy="268.9" r="2.6" opacity="0.3"/><circle cx="1281.8" cy="38.5" r="2.1" opacity="0.6"/><circle cx="549.1" cy="171.7" r="1.4" opacity="0.6"/><circle cx="1013.1" cy="137" r="1.4" opacity="0.4"/><circle cx="1181.8" cy="27.3" r="0.9" opacity="0.6"/><circle cx="1564.5" cy="23.2" r="2.3" opacity="0.6"/><circle cx="484.5" cy="143.2" r="1" opacity="0.5"/><circle cx="318.2" cy="239.4" r="1.9" opacity="0.6"/><circle cx="1286.4" cy="335" r="2.5" opacity="0.6"/><circle cx="1340.2" cy="376" r="1.2" opacity="0.7"/><circle cx="1038.6" cy="110.5" r="1.5" opacity="0.5"/><circle cx="1400.1" cy="189.2" r="1.7" opacity="0.4"/><circle cx="1175.9" cy="86.6" r="0.8" opacity="0.7"/><circle cx="442.8" cy="258.2" r="1.1" opacity="0.4"/><circle cx="1564.3" cy="282" r="2.6" opacity="0.4"/><circle cx="296.8" cy="123.3" r="1.1" opacity="0.3"/><circle cx="1423.9" cy="6.6" r="2.1" opacity="0.6"/><circle cx="204.5" cy="275.8" r="2.3" opacity="0.4"/><circle cx="1096" cy="235.9" r="2.1" opacity="0.4"/><circle cx="233.8" cy="143" r="2.1" opacity="0.5"/><circle cx="757.4" cy="74.4" r="1.7" opacity="0.5"/><circle cx="178.6" cy="205" r="2.2" opacity="0.3"/><circle cx="1091.3" cy="17.9" r="1.8" opacity="0.3"/><circle cx="374.4" cy="25.4" r="0.8" opacity="0.3"/><circle cx="1558.5" cy="59" r="1.1" opacity="0.6"/><circle cx="500.1" cy="62.1" r="2.3" opacity="0.3"/><circle cx="811.4" cy="246.7" r="0.9" opacity="0.5"/><circle cx="1254.4" cy="26.7" r="2.6" opacity="0.5"/></g>
  <rect width="1600" height="1200" fill="url(#sun)"/>
  <path d="M0 900 C 240 840, 460 880, 700 850 S 1100 790, 1320 850 S 1520 880, 1600 860 L1600 1200 L0 1200 Z" fill="#5b3f78"/>
  <path d="M0 980 C 280 930, 540 975, 800 945 S 1220 905, 1440 960 S 1570 975, 1600 965 L1600 1200 L0 1200 Z" fill="#3c2d63"/>
  <path d="M0 1070 C 320 1030, 640 1080, 940 1050 S 1420 1020, 1600 1060 L1600 1200 L0 1200 Z" fill="#241d48"/></svg>
