<svg xmlns="http://www.w3.org/2000/svg" viewBox="0 0 100 200">
  <defs><radialGradient id="bg" cx="0.5" cy="0.45" r="0.8"><stop offset="0" stop-color="#fffbea"/><stop offset="0.55" stop-color="#fff0bf"/><stop offset="1" stop-color="#ffe08c"/></radialGradient></defs>
  <rect width="100" height="200" fill="url(#bg)"/>
  <defs><radialGradient id="ray0" gradientUnits="userSpaceOnUse" cx="50" cy="96" r="102"><stop offset="0" stop-color="#ffffff" stop-opacity="1"/><stop offset="1" stop-color="#ffffff" stop-opacity="0"/></radialGradient></defs><g fill="url(#ray0)" opacity="0.75"><path d="M50 96 L151.9 114.6 L147.5 130.9 Z"/><path d="M50 96 L127.7 159.8 L113.1 174.3 Z"/><path d="M50 96 L86.9 192.7 L70.7 197.4 Z"/><path d="M50 96 L29.6 207.6 L12.4 203 Z"/><path d="M50 96 L-17.9 178.2 L-31.7 164.6 Z"/><path d="M50 96 L-34.5 125.7 L-37.4 115.5 Z"/><path d="M50 96 L-50.7 77.2 L-47 62.9 Z"/><path d="M50 96 L-29.4 31.7 L-17.2 19 Z"/><path d="M50 96 L9.8 -8.3 L31.8 -14.3 Z"/><path d="M50 96 L71.4 -5.9 L85.1 -2.1 Z"/><path d="M50 96 L122.1 14.1 L130.1 21.9 Z"/><path d="M50 96 L130.3 70.7 L132.9 81.7 Z"/></g>
  <path d="M50 15 Q52.2 23.8 61 26 Q52.2 28.2 50 37 Q47.8 28.2 39 26 Q47.8 23.8 50 15 Z" fill="#ffc23f"/><path d="M30 36 Q30.8 39.2 34 40 Q30.8 40.8 30 44 Q29.2 40.8 26 40 Q29.2 39.2 30 36 Z" fill="#ffd36e"/><path d="M71 31 Q72 35 76 36 Q72 37 71 41 Q70 37 66 36 Q70 35 71 31 Z" fill="#ffd36e"/>
  <g transform="translate(50 44) scale(0.98)">
    <ellipse cx="0" cy="142" rx="30" ry="5" fill="#c9a24d" opacity="0.28"/>
    <g fill="#7a6672"><rect x="-17" y="104" width="7" height="36" rx="3.5"/><rect x="10" y="104" width="7" height="36" rx="3.5"/><rect x="-7" y="108" width="6" height="31" rx="3"/><rect x="2" y="108" width="6" height="31" rx="3"/></g>
    <g fill="#e8dccb"><circle cx="-20" cy="92" r="16.5"/><circle cx="-12" cy="76" r="17.5"/><circle cx="0" cy="72" r="18.5"/><circle cx="12" cy="76" r="17.5"/><circle cx="20" cy="92" r="16.5"/><circle cx="14" cy="108" r="16.5"/><circle cx="0" cy="113" r="18.5"/><circle cx="-14" cy="108" r="16.5"/><circle cx="0" cy="94" r="23.5"/></g><g fill="#fffdf8"><circle cx="-20" cy="92" r="14"/><circle cx="-12" cy="76" r="15"/><circle cx="0" cy="72" r="16"/><circle cx="12" cy="76" r="15"/><circle cx="20" cy="92" r="14"/><circle cx="14" cy="108" r="14"/><circle cx="0" cy="113" r="16"/><circle cx="-14" cy="108" r="14"/><circle cx="0" cy="94" r="21"/></g>
    <ellipse cx="-21" cy="28" rx="13" ry="6.5" transform="rotate(-22 -21 28)" fill="#f7dcc6" stroke="#e5c3a6" stroke-width="1.6"/>
    <ellipse cx="-20" cy="28" rx="7" ry="3.2" transform="rotate(-22 -20 28)" fill="#f6b8ad"/>
    <ellipse cx="21" cy="28" rx="13" ry="6.5" transform="rotate(22 21 28)" fill="#f7dcc6" stroke="#e5c3a6" stroke-width="1.6"/>
    <ellipse cx="20" cy="28" rx="7" ry="3.2" transform="rotate(22 20 28)" fill="#f6b8ad"/>
    <ellipse cx="0" cy="34" rx="17" ry="20" fill="#fdeee2" stroke="#e5c9ad" stroke-width="2"/>
    <g fill="#e8dccb"><circle cx="-8" cy="18" r="9"/><circle cx="0" cy="15" r="10"/><circle cx="8" cy="18" r="9"/></g><g fill="#fffdf8"><circle cx="-8" cy="18" r="7"/><circle cx="0" cy="15" r="8"/><circle cx="8" cy="18" r="7"/></g>
    <ellipse cx="-6" cy="34" rx="2.8" ry="3.8" fill="#3d3240"/><circle cx="-5" cy="32.6" r="1.1" fill="#fff"/>
    <ellipse cx="6" cy="34" rx="2.8" ry="3.8" fill="#3d3240"/><circle cx="7" cy="32.6" r="1.1" fill="#fff"/>
    <circle cx="-11" cy="42" r="3.6" fill="#f6a9a0" opacity="0.55"/><circle cx="11" cy="42" r="3.6" fill="#f6a9a0" opacity="0.55"/>
    <path d="M-3 41.5 Q0 39.2 3 41.5 Q0 45 -3 41.5 Z" fill="#df938e"/>
    <path d="M0 44.6 Q-1.8 48 -4.6 46.6 M0 44.6 Q1.8 48 4.6 46.6" stroke="#bf7e75" stroke-width="1.4" fill="none" stroke-linecap="round"/>
  </g></svg>
