<svg xmlns="http://www.w3.org/2000/svg" viewBox="0 0 100 300">
  <defs>
    <linearGradient id="bg" x1="0" y1="0" x2="0" y2="1"><stop offset="0" stop-color="#e8f6fc"/><stop offset="1" stop-color="#cde7f3"/></linearGradient>
    <linearGradient id="trunk" x1="0" y1="0" x2="1" y2="0"><stop offset="0" stop-color="#e2bd8e"/><stop offset="1" stop-color="#bf9161"/></linearGradient>
  </defs>
  <rect width="100" height="300" fill="url(#bg)"/>
  <ellipse cx="52" cy="286" rx="30" ry="5" fill="#6aa0b8" opacity="0.25"/>
  <path d="M44 284 C 46 220, 56 150, 50 78 L 58 78 C 64 150, 56 220, 58 284 Z" fill="url(#trunk)"/>
  <g stroke="#a7784b" stroke-width="2" opacity="0.55" stroke-linecap="round"><path d="M47 95 q5 -4 10 0"/><path d="M48.3 109.5 q5 -4 10 0"/><path d="M48.4 124 q5 -4 10 0"/><path d="M47.2 138.5 q5 -4 10 0"/><path d="M45.9 153 q5 -4 10 0"/><path d="M45.6 167.5 q5 -4 10 0"/><path d="M46.6 182 q5 -4 10 0"/><path d="M48 196.5 q5 -4 10 0"/><path d="M48.5 211 q5 -4 10 0"/><path d="M47.6 225.5 q5 -4 10 0"/><path d="M46.2 240 q5 -4 10 0"/><path d="M45.5 254.5 q5 -4 10 0"/><path d="M46.2 269 q5 -4 10 0"/></g>
  <g fill="#b9774a"><circle cx="49" cy="84" r="4.5"/><circle cx="57" cy="86" r="4.5"/><circle cx="53" cy="90" r="4.5"/></g>
  <g stroke-linecap="round" fill="none">
    <path d="M54 76 C 36 58, 20 60, 6 74" stroke="#5fb47a" stroke-width="9"/>
    <path d="M54 76 C 72 58, 86 60, 96 76" stroke="#5fb47a" stroke-width="9"/>
    <path d="M54 76 C 44 50, 30 36, 16 34" stroke="#79c48f" stroke-width="8"/>
    <path d="M54 76 C 66 50, 78 38, 90 38" stroke="#79c48f" stroke-width="8"/>
    <path d="M54 76 C 54 52, 52 34, 46 20" stroke="#8fd2a0" stroke-width="7"/>
    <path d="M54 76 C 36 74, 20 86, 14 104" stroke="#4b9b66" stroke-width="7"/>
    <path d="M54 76 C 72 74, 86 86, 90 104" stroke="#4b9b66" stroke-width="7"/>
  </g></svg>
