<svg xmlns="http://www.w3.org/2000/svg" viewBox="0 0 100 200">
  <defs>
    <linearGradient id="bg" x1="0" y1="0" x2="0" y2="1"><stop offset="0" stop-color="#e2efd8"/><stop offset="1" stop-color="#b7d2a9"/></linearGradient>
    <linearGradient id="leaf" x1="0" y1="0" x2="1" y2="0"><stop offset="0" stop-color="#6aa86c"/><stop offset="0.5" stop-color="#3f7d4b"/><stop offset="1" stop-color="#2c5d3c"/></linearGradient>
  </defs>
  <rect width="100" height="200" fill="url(#bg)"/>
  <ellipse cx="50" cy="186" rx="28" ry="5" fill="#3d6a3f" opacity="0.28"/>
  <rect x="45" y="150" width="10" height="36" rx="3" fill="#7a5233"/>
  <path d="M50 12 C 69 46, 79 92, 75 132 C 73 157, 61 167, 50 167 C 39 167, 27 157, 25 132 C 21 92, 31 46, 50 12 Z" fill="url(#leaf)"/>
  <path d="M49 30 C 41 60, 35 98, 37 134" stroke="#9fd09a" stroke-width="3.5" fill="none" stroke-linecap="round" opacity="0.55"/>
  <g stroke="#24503a" stroke-width="2.5" fill="none" stroke-linecap="round" opacity="0.5"><path d="M43 60 Q50 67 58 60"/><path d="M37 90 Q50 99 64 90"/><path d="M34 120 Q50 130 67 120"/><path d="M38 148 Q50 155 62 148"/></g></svg>
